<?xml version="1.0" encoding="UTF-8"?><svg id="Layer_1" xmlns="http://www.w3.org/2000/svg" viewBox="0 0 141.73 141.73"><defs><style>.cls-1{fill:#e4f1f7;}.cls-2{fill:#20a299;}.cls-3{fill:none;stroke:#111a1c;stroke-linecap:round;stroke-linejoin:round;stroke-width:1.36px;}</style></defs><path class="cls-1" d="M133.58,69.89c-.48,6.59-8.93,11.16-18.94,13.96-2.37-.7-4.94-1.51-7.61-2.39-3.24-1.06-6.63-2.24-10.04-3.51-1.13-.42-2.26-.85-3.38-1.29,13.77.11,29.53-1.29,39.97-6.76Z"/><path class="cls-1" d="M126.64,59.28c-1.01,3.74-6.93,5.3-11.7,5.07s-11.13.36-13.3,2.81c-2.17,2.44-5.93,4.74-8.39,1-2.4-3.63,1.97-9.3,2.18-9.57,4.72.16,8.92-1.07,11.6-4.77h0c8.68,2.85,16.19,4.86,19.61,5.46Z"/><path class="cls-1" d="M74.15,39.93c-1.36-.51-3.11-1.09-5.03-1.56-4.18-1.02-9.17-1.45-12.74.81-1.41.9-3.08,2.11-4.92,3.38-.18-.05-.28-.07-.28-.07-3.33-3.45-.58-12.48.72-14.07s3.76-4.59,15.47,6.6c1.7,1.63,4.03,3.28,6.78,4.91Z"/><path class="cls-1" d="M96.99,50.3c3.4,1.27,6.8,2.45,10.04,3.51h0c-2.67,3.7-6.87,4.94-11.6,4.78-3.18-.11-6.61-.87-9.97-1.95-5.38-1.73-10.59-4.28-14.33-6.34-8.62-4.73-17.96-7.3-19.67-7.75,1.84-1.27,3.51-2.48,4.92-3.38,3.57-2.26,8.55-1.83,12.74-.81,1.92.47,3.67,1.05,5.03,1.56.68.41,1.39.82,2.13,1.22,2.04,1.12,4.27,2.24,6.61,3.32,2.21,1.03,4.53,2.03,6.89,3.01,2.37.97,4.79,1.92,7.21,2.82Z"/><path class="cls-1" d="M79.23,65.87c-1.48.57-2.77,1.43-3.89,2.39-.41-.24-.8-.47-1.19-.7-2.75-1.63-5.08-3.28-6.78-4.91-11.71-11.19-14.17-8.18-15.47-6.6-1.3,1.57-4.05,10.62-.72,14.07,0,0,.1.03.28.07-.99.68-2.02,1.37-3.09,2.03-3.51-.36-6.99-.68-10.19-.91-2.44-18.38-25.5-21.01-25.5-21.01.86-4.34,1.88-8.19,2.65-10.41,1.88-5.45,7.38-5.16,8.82-.72,1.45,4.45,4.33,8.04,11.28,9.47,5.06,1.05,11.11-2.71,16.04-6.09,1.71.45,11.04,3.02,19.67,7.75,3.74,2.05,8.95,4.61,14.33,6.34-.01.29-.44,6.98-6.23,9.23Z"/><path class="cls-1" d="M11.29,69.03s1.26.33,3.35.72c-.63,2.19-1.33,5.06-1.96,8.19-.36,1.85-.7,3.8-.97,5.74-1.27-.7-2.2-1.49-2.69-2.37-3.02-5.55,2.27-12.28,2.27-12.28Z"/><path class="cls-1" d="M38.18,71.31c3.2.24,6.68.55,10.19.91-4.23,2.66-8.91,4.89-12.95,4.06-4.65-.96-7.48-2.88-9.27-5.39.57,0,1.16,0,1.75,0,2.65-.04,6.24.12,10.27.42Z"/><path class="cls-1" d="M74.15,67.57c-1.36-.51-3.11-1.09-5.03-1.56-4.18-1.02-9.17-1.45-12.74.81-1.41.9-3.09,2.11-4.92,3.38-.18-.05-.28-.07-.28-.07-3.33-3.45-.58-12.49.72-14.07,1.3-1.58,3.76-4.59,15.47,6.6,1.7,1.63,4.03,3.28,6.78,4.91Z"/><path class="cls-1" d="M96.99,77.94c3.4,1.27,6.8,2.45,10.04,3.51h0c-2.67,3.7-6.87,4.94-11.59,4.77-3.19-.11-6.61-.87-9.98-1.95-5.38-1.73-10.59-4.28-14.33-6.34-8.62-4.74-17.96-7.3-19.67-7.75,1.83-1.27,3.51-2.48,4.92-3.38,3.57-2.26,8.56-1.83,12.74-.81,1.92.47,3.67,1.05,5.03,1.56.39.23.78.46,1.19.7.31.17.62.34.94.53,2.04,1.12,4.27,2.24,6.61,3.32,2.21,1.03,4.53,2.04,6.89,3.01,1.27.52,2.54,1.03,3.82,1.53,1.12.44,2.25.87,3.38,1.29Z"/><path class="cls-1" d="M114.64,83.85c5.31,1.57,9.64,2.67,12,3.07-1.01,3.74-6.93,5.3-11.7,5.07s-11.13.36-13.3,2.8c-2.17,2.44-5.93,4.74-8.39,1.01-2.4-3.65,1.99-9.33,2.19-9.58,4.72.17,8.91-1.07,11.59-4.76h0c2.67.88,5.25,1.68,7.61,2.38Z"/><path class="cls-1" d="M70.25,102.67c12.69,1.74,45.63,4.12,63.33-5.15-.95,13.05-33.22,18.18-46.68,17.28-13.46-.91-30.09-4.96-42.04-1.66-11.95,3.3-32.81,1.35-35.84-4.2-3.02-5.55,2.27-12.28,2.27-12.28,0,0,7.52,2.01,16.62,1.86,2.65-.04,6.23.12,10.27.42,9.87.72,22.41,2.23,30.21,3.45.56.09,1.18.18,1.86.27Z"/><path class="cls-1" d="M14.64,69.75c.24-.85.48-1.6.69-2.22,1.88-5.45,7.38-5.17,8.82-.72.48,1.47,1.12,2.84,2.01,4.08,1.79,2.51,4.62,4.43,9.27,5.39,4.04.83,8.72-1.4,12.95-4.06,1.07-.66,2.1-1.36,3.09-2.03,1.71.45,11.04,3.01,19.67,7.75,3.74,2.05,8.95,4.61,14.33,6.34-.01.29-.44,6.98-6.23,9.23-5.93,2.3-8.98,9.17-8.98,9.17-.68-.09-1.3-.18-1.86-.27-7.8-1.22-20.33-2.74-30.21-3.45-2.44-18.38-25.5-21.01-25.5-21.01h0c.63-3.13,1.33-6,1.96-8.19Z"/><path class="cls-2" d="M127.51,87.05c7.23.86,6.07,10.48,6.07,10.48-17.7,9.27-50.64,6.89-63.33,5.15,0,0,3.06-6.87,8.98-9.17,5.8-2.25,6.22-8.94,6.23-9.23,3.36,1.07,6.78,1.83,9.98,1.95-.2.25-4.59,5.93-2.19,9.58,2.46,3.73,6.22,1.43,8.39-1.01,2.16-2.44,8.53-3.03,13.3-2.8s10.69-1.33,11.7-5.07c.33.05.62.1.87.13Z"/><path class="cls-2" d="M127.51,59.41c7.23.86,6.07,10.48,6.07,10.48-10.45,5.47-26.2,6.88-39.97,6.76-1.29-.5-2.56-1.01-3.82-1.53-2.37-.97-4.68-1.99-6.89-3.01-2.34-1.09-4.57-2.2-6.61-3.32-.32-.18-.63-.36-.94-.53,1.12-.97,2.41-1.82,3.89-2.39,5.8-2.25,6.22-8.94,6.23-9.23,3.35,1.08,6.78,1.84,9.97,1.95-.22.28-4.58,5.94-2.18,9.57,2.46,3.74,6.22,1.44,8.39-1,2.16-2.45,8.53-3.03,13.3-2.81s10.69-1.33,11.7-5.07c.33.05.62.1.87.13Z"/><path class="cls-2" d="M38.18,71.31c-4.04-.3-7.63-.46-10.27-.42-.59,0-1.18,0-1.75,0-.89-1.24-1.52-2.61-2.01-4.08-1.44-4.45-6.94-4.74-8.82.72-.21.62-.45,1.37-.69,2.22-2.1-.39-3.35-.72-3.35-.72-.77-4.95.14-12.37,1.4-18.73,0,0,23.05,2.63,25.5,21.01Z"/><path class="cls-2" d="M38.18,98.95c-4.04-.3-7.63-.46-10.27-.42-9.1.14-16.62-1.86-16.62-1.86-.54-3.51-.25-8.26.42-12.98.27-1.95.61-3.89.97-5.74h0s23.05,2.63,25.5,21.01Z"/><path class="cls-3" d="M74.15,67.57c-1.36-.51-3.11-1.09-5.03-1.56-4.18-1.02-9.17-1.45-12.74.81-1.41.9-3.09,2.11-4.92,3.38-.99.68-2.02,1.37-3.09,2.03-4.23,2.66-8.91,4.89-12.95,4.06-4.65-.96-7.48-2.88-9.27-5.39-.89-1.24-1.52-2.61-2.01-4.08-1.44-4.45-6.94-4.74-8.82.72-.21.62-.45,1.37-.69,2.22-.63,2.19-1.33,5.06-1.96,8.19-.36,1.85-.7,3.8-.97,5.74-.67,4.73-.97,9.48-.42,12.98,0,0,7.52,2.01,16.62,1.86,2.65-.04,6.23.12,10.27.42,9.87.72,22.41,2.23,30.21,3.45.56.09,1.18.18,1.86.27,12.69,1.74,45.63,4.12,63.33-5.15,0,0,1.16-9.61-6.07-10.48-.25-.03-.54-.07-.87-.13-2.36-.41-6.68-1.5-12-3.07-2.37-.7-4.94-1.51-7.61-2.39-3.24-1.06-6.63-2.24-10.04-3.51-1.13-.42-2.26-.85-3.38-1.29-1.29-.5-2.56-1.01-3.82-1.53-2.37-.97-4.68-1.99-6.89-3.01-2.34-1.09-4.57-2.2-6.61-3.32-.32-.18-.63-.36-.94-.53-.41-.24-.8-.47-1.19-.7-2.75-1.63-5.08-3.28-6.78-4.91-11.71-11.19-14.17-8.18-15.47-6.6-1.3,1.57-4.05,10.62-.72,14.07,0,0,.1.03.28.07,1.71.45,11.04,3.01,19.67,7.75,3.74,2.05,8.95,4.61,14.33,6.34,3.36,1.07,6.78,1.83,9.98,1.95,4.72.17,8.91-1.07,11.59-4.76"/><path class="cls-3" d="M12.69,77.94s23.05,2.63,25.5,21.01"/><path class="cls-3" d="M95.44,86.22h0c-.2.26-4.59,5.94-2.19,9.59,2.46,3.73,6.22,1.43,8.39-1.01,2.16-2.44,8.53-3.03,13.3-2.8s10.69-1.33,11.7-5.07"/><path class="cls-3" d="M85.46,84.27h0c-.01.3-.44,6.99-6.23,9.23-5.93,2.3-8.98,9.17-8.98,9.17"/><line class="cls-3" x1="65.06" y1="70.12" x2="69.12" y2="66"/><line class="cls-3" x1="71.94" y1="73.42" x2="76.28" y2="68.79"/><line class="cls-3" x1="78.72" y1="76.56" x2="82.89" y2="72.11"/><line class="cls-3" x1="85.5" y1="79.69" x2="89.78" y2="75.12"/><line class="cls-3" x1="92.28" y1="82.83" x2="96.99" y2="77.94"/><path class="cls-3" d="M11.29,96.67s-5.29,6.73-2.27,12.28c3.03,5.55,23.89,7.51,35.84,4.2,11.95-3.3,28.58.75,42.04,1.66,13.46.9,45.73-4.24,46.68-17.28"/><path class="cls-3" d="M93.44,76.65h.16c13.77.11,29.53-1.29,39.97-6.76,0,0,1.16-9.61-6.07-10.48-.25-.03-.54-.07-.87-.13-3.42-.59-10.94-2.61-19.61-5.47-3.24-1.06-6.63-2.24-10.04-3.51-2.42-.9-4.83-1.84-7.21-2.82-2.37-.98-4.68-1.99-6.89-3.01-2.34-1.09-4.57-2.2-6.61-3.32-.73-.41-1.45-.82-2.13-1.22-2.75-1.63-5.08-3.28-6.78-4.91-11.71-11.19-14.17-8.18-15.47-6.6s-4.05,10.62-.72,14.07c0,0,.1.03.28.07,1.71.45,11.04,3.02,19.67,7.75,3.74,2.05,8.95,4.61,14.33,6.34,3.35,1.08,6.78,1.84,9.97,1.95,4.72.16,8.92-1.07,11.6-4.77"/><path class="cls-3" d="M26.16,70.9c.57,0,1.16,0,1.75,0,2.65-.04,6.24.12,10.27.42,3.2.24,6.68.55,10.19.91"/><path class="cls-3" d="M74.15,39.93c-1.36-.51-3.11-1.09-5.03-1.56-4.18-1.02-9.17-1.45-12.74.81-1.41.9-3.08,2.11-4.92,3.38-4.93,3.38-10.98,7.14-16.04,6.09-6.94-1.43-9.83-5.03-11.28-9.47-1.44-4.45-6.94-4.74-8.82.72-.76,2.22-1.79,6.07-2.65,10.41-1.27,6.36-2.17,13.78-1.4,18.73,0,0,1.26.33,3.35.72h0"/><path class="cls-3" d="M12.69,50.3s23.05,2.63,25.5,21.01"/><path class="cls-3" d="M95.44,58.58s0,0,0,.01c-.22.28-4.58,5.94-2.18,9.57,2.46,3.74,6.22,1.44,8.39-1,2.16-2.45,8.53-3.03,13.3-2.81s10.69-1.33,11.7-5.07"/><path class="cls-3" d="M85.46,56.63h0c-.01.3-.44,6.99-6.23,9.23-1.48.57-2.77,1.43-3.89,2.39"/><line class="cls-3" x1="65.06" y1="42.48" x2="69.12" y2="38.37"/><line class="cls-3" x1="71.94" y1="45.79" x2="76.28" y2="41.15"/><line class="cls-3" x1="78.72" y1="48.92" x2="82.89" y2="44.47"/><line class="cls-3" x1="85.5" y1="52.05" x2="89.78" y2="47.49"/><line class="cls-3" x1="92.28" y1="55.19" x2="96.99" y2="50.3"/><path class="cls-3" d="M114.63,83.85h0c10-2.8,18.46-7.37,18.94-13.96"/><path class="cls-3" d="M11.29,69.03s-5.29,6.73-2.27,12.28c.48.88,1.42,1.68,2.69,2.37"/></svg>